<?xml version="1.0" encoding="UTF-8"?>
<svg width="317px" height="201px" viewBox="0 0 317 201" version="1.1" xmlns="http://www.w3.org/2000/svg" xmlns:xlink="http://www.w3.org/1999/xlink">
    <!-- Generator: Sketch 47.1 (45422) - http://www.bohemiancoding.com/sketch -->
    <title>Slice</title>
    <desc>Created with Sketch.</desc>
    <defs></defs>
    <g id="Page-1" stroke="none" stroke-width="1" fill="none" fill-rule="evenodd">
        <g id="star" transform="translate(18.000000, 25.000000)" stroke-width="4" stroke="#000000" fill="#FFF14A" fill-rule="nonzero">
            <polygon id="element" points="48 75 18.6107374 90.45085 24.2235871 57.7254249 0.4471742 34.5491503 33.3053687 29.7745751 48 0 62.6946313 29.7745751 95.552826 34.5491503 71.7764129 57.7254249 77.3892626 90.45085"></polygon>
        </g>
        <g id="circle" transform="translate(200.000000, 25.000000)" stroke="#000000" fill-rule="nonzero" stroke-width="4" fill="#E25454">
            <circle id="element" cx="35" cy="35" r="35"></circle>
        </g>
        <g id="triangle" transform="translate(114.000000, 60.000000)" stroke-width="4" stroke="#000000" fill="#6D6BFF" fill-rule="nonzero">
            <polygon id="element" points="42 0 84 84 0 84"></polygon>
        </g>
        <g id="smiley" transform="translate(219.000000, 107.000000)" fill="none">
            <circle id="head" stroke="#000000" fill="#FFF14A" cx="37.5" cy="37.5" r="37.5"></circle>
            <ellipse id="eye" fill="#000000" cx="21" cy="24" rx="4" ry="7"></ellipse>
            <ellipse id="eye" fill="#000000" cx="54" cy="24" rx="4" ry="7"></ellipse>
            <path d="M13,44.856953 C21.2040771,53.1381083 29.5509796,57.2060512 38.0407077,57.0607818 C46.5304358,56.9155124 54.8773384,52.5619185 63.0814154,44" id="Path-2" stroke="#000000" stroke-width="3"></path>
        </g>
    </g>
</svg>